<?xml version="1.0" encoding="UTF-8" standalone="no"?>
<svg
   xmlns:dc="http://purl.org/dc/elements/1.1/"
   xmlns:cc="http://creativecommons.org/ns#"
   xmlns:rdf="http://www.w3.org/1999/02/22-rdf-syntax-ns#"
   xmlns:svg="http://www.w3.org/2000/svg"
   xmlns="http://www.w3.org/2000/svg"
   width="12"
   height="12"
   version="1.1"
   viewBox="0 0 3.175 3.175"
   id="svg12">
  <metadata
     id="metadata18">
    <rdf:RDF>
      <cc:Work
         rdf:about="">
        <dc:format>image/svg+xml</dc:format>
        <dc:type
           rdf:resource="http://purl.org/dc/dcmitype/StillImage" />
        <dc:title></dc:title>
      </cc:Work>
    </rdf:RDF>
  </metadata>
  <defs
     id="defs16" />
  <path
     style="fill:#ffffff;fill-opacity:1;stroke:CurrentColor;stroke-width:0.264583px;stroke-linecap:butt;stroke-linejoin:round;stroke-opacity:1"
     d="m 0.13229172,1.1925095 0.002064,1.5875 c 1.7199e-4,0.1322916 0.13229141,0.2645833 0.26458308,0.2645833 h 2.38125 c 0.1322916,0 0.2645833,-0.1322917 0.2645833,-0.2645833 l -0.00206,-1.5875 z"
     id="path1663" />
  <path
     style="fill:none;fill-opacity:1;stroke:CurrentColor;stroke-width:0.264583px;stroke-linecap:butt;stroke-linejoin:round;stroke-opacity:1"
     d="m 1.4552083,1.9862595 v 0.2645833 c 0,0.1322917 -0.1322916,0.2645833 -0.2645833,0.2645833 -0.1322917,0 -0.26458328,-0.1322916 -0.26458328,-0.2645833 V 1.9862595 c 0,-0.1322917 0.13229158,-0.2645834 0.26458328,-0.2645834 0.1322917,0 0.2645833,0.1322917 0.2645833,0.2645834 z"
     id="path4563-2-56-3" />
  <path
     style="fill:none;stroke:CurrentColor;stroke-width:0.264583px;stroke-linecap:square;stroke-linejoin:miter;stroke-opacity:1"
     d="m 1.984375,1.7216761 h 0.2645833 v 0.79375"
     id="path1894" />
  <path
     style="fill:;fill-opacity:1;stroke:CurrentColor;stroke-width:0.264583px;stroke-linecap:butt;stroke-linejoin:round;stroke-opacity:1"
     d="m 3.0425996,1.0583303 c 1.3e-6,0.03608 4.2e-6,0.1322916 -0.1454978,0.1322948 l -2.61903366,5.61e-5 C 0.13256609,1.1906844 0.13256318,1.0944686 0.13256212,1.0583927 l -1.667e-5,-0.52916668 c -1.32e-6,-0.03608 -4.23e-6,-0.1322917 0.14549782,-0.1322948 l 2.61903363,-5.61e-5 c 0.1455018,-3.2e-6 0.1455047,0.096205 0.145506,0.1322885 z"
     id="path1260" />
  <path
     style="fill:none;stroke:CurrentColor;stroke-width:0.264583px;stroke-linecap:butt;stroke-linejoin:miter;stroke-opacity:1"
     d="m 2.2489583,0.79563442 v -0.79375"
     id="path4573-5-7" />
  <path
     style="fill:none;stroke:CurrentColor;stroke-width:0.264583px;stroke-linecap:butt;stroke-linejoin:miter;stroke-opacity:1"
     d="m 0.92604172,0.79563442 v -0.79375"
     id="path4573-1-6" />
</svg>
