<?xml version="1.0" encoding="UTF-8" standalone="no"?>
<svg
   xmlns:dc="http://purl.org/dc/elements/1.1/"
   xmlns:cc="http://creativecommons.org/ns#"
   xmlns:rdf="http://www.w3.org/1999/02/22-rdf-syntax-ns#"
   xmlns:svg="http://www.w3.org/2000/svg"
   xmlns="http://www.w3.org/2000/svg"
   width="12"
   height="12"
   version="1.1"
   viewBox="0 0 3.175 3.175"
   id="svg12">
  <metadata
     id="metadata18">
    <rdf:RDF>
      <cc:Work
         rdf:about="">
        <dc:format>image/svg+xml</dc:format>
        <dc:type
           rdf:resource="http://purl.org/dc/dcmitype/StillImage" />
        <dc:title></dc:title>
      </cc:Work>
    </rdf:RDF>
  </metadata>
  <defs
     id="defs16" />
  <ellipse
     id="ellipse1176"
     cx="1.5876008"
     cy="1.5875965"
     style="fill:;fill-opacity:1;stroke:none;stroke-width:0.264582;stroke-opacity:1"
     rx="1.058334"
     ry="1.0583339" />
  <circle
     id="circle1134"
     cx="1.5876008"
     cy="1.5875965"
     style="fill:#ffffff;fill-opacity:1;stroke:CurrentColor;stroke-width:0.264583;stroke-opacity:1"
     r="0.52916664" />
  <path
     id="path1136"
     style="fill:;fill-opacity:1;stroke:CurrentColor;stroke-width:0.264583px;stroke-linecap:butt;stroke-linejoin:round;stroke-opacity:1;paint-order:normal"
     d="m 0.60677894,1.1907358 h -0.3286606 c -0.1455024,2.7e-6 -0.1457302,0.096213 -0.1457275,0.1322917 v 0.5291667 c 0,0.036076 2.251e-4,0.1322943 0.1457275,0.1322916 h 0.3286606 m 0.00672,0.016034 -0.2325423,0.2325423 c -0.1028854,0.1028883 -0.034807,0.170865 -0.0093,0.1963709 l 0.3741364,0.3741368 c 0.025506,0.025532 0.093491,0.093588 0.1963711,-0.00929 L 1.1747044,2.5617379 m 0.016034,0.00672 v 0.3286629 c 0,0.1455023 0.096213,0.1457272 0.1322917,0.1457272 h 0.5291667 c 0.036076,0 0.1322916,-2.249e-4 0.1322916,-0.1457272 V 2.5684583 m 0.016034,-0.00672 0.2325423,0.232545 c 0.102888,0.1028855 0.1708648,0.034806 0.1963706,0.00929 L 2.8035719,2.429433 C 2.8291039,2.403927 2.8971599,2.335945 2.7942819,2.2330619 L 2.5617402,2.0005196 m 0.00672,-0.016034 h 0.3286627 c 0.1455023,-5.3e-6 0.1457298,-0.09621 0.1457272,-0.1322916 V 1.3230275 c 0,-0.036084 -2.249e-4,-0.132297 -0.1457272,-0.1322917 H 2.5684606 M 2.5617402,1.1747021 2.794285,0.94215981 C 2.8971709,0.83927393 2.829091,0.77129454 2.8035719,0.7457887 L 2.4294353,0.37165305 c -0.025506,-0.0255058 -0.093488,-0.0935884 -0.1963711,0.009287 L 2.0005219,0.61348381 m -0.016034,-0.00672 V 0.27810168 C 1.9844749,0.13261525 1.8882619,0.13239035 1.8521833,0.13239035 H 1.3230166 c -0.036084,0 -0.1322917,2.249e-4 -0.1322917,0.1457272 v 0.32866172 m -0.016034,0.00672 L 0.94214894,0.3809558 c -0.1028859,-0.10288587 -0.1708653,-0.0348059 -0.1963711,-0.009287 l -0.3741357,0.37413565 c -0.025516,0.0255058 -0.093587,0.0934879 0.0093,0.1963711 l 0.232541,0.23254222" />
</svg>
