<?xml version="1.0" encoding="UTF-8" standalone="no"?>
<svg
   xmlns:dc="http://purl.org/dc/elements/1.1/"
   xmlns:cc="http://creativecommons.org/ns#"
   xmlns:rdf="http://www.w3.org/1999/02/22-rdf-syntax-ns#"
   xmlns:svg="http://www.w3.org/2000/svg"
   xmlns="http://www.w3.org/2000/svg"
   width="12"
   height="12"
   version="1.1"
   viewBox="0 0 3.175 3.175"
   id="svg12">
  <metadata
     id="metadata18">
    <rdf:RDF>
      <cc:Work
         rdf:about="">
        <dc:format>image/svg+xml</dc:format>
        <dc:type
           rdf:resource="http://purl.org/dc/dcmitype/StillImage" />
        <dc:title></dc:title>
      </cc:Work>
    </rdf:RDF>
  </metadata>
  <defs
     id="defs16" />
  <path
     style="fill:#ffffff;fill-opacity:1;stroke:CurrentColor;stroke-width:0.264583px;stroke-linecap:butt;stroke-linejoin:round;stroke-opacity:1"
     d="m 2.778125,0.1323206 c 0.1322917,0 0.2645833,0.1322917 0.2645833,0.2645834 v 2.3812499 c 0,0.1322917 -0.1322916,0.2645833 -0.2645833,0.2645833 H 0.39687553 c -0.13229167,0 -0.26458333,-0.1322916 -0.26458333,-0.2645833 V 0.396904 c 0,-0.1322917 0.13229166,-0.2645834 0.26458333,-0.2645834 z"
     id="path4563-2-56-6" />
  <path
     style="fill:none;stroke:CurrentColor;stroke-width:0.264583px;stroke-linecap:butt;stroke-linejoin:miter;stroke-opacity:1"
     d="m 1.0583333,1.4552372 h 1.5875"
     id="path2216-1" />
  <path
     style="fill:none;stroke:CurrentColor;stroke-width:0.264583px;stroke-linecap:butt;stroke-linejoin:miter;stroke-opacity:1"
     d="m 1.0583333,1.9844039 h 1.5875"
     id="path2216-4" />
  <path
     style="fill:none;stroke:CurrentColor;stroke-width:0.264583px;stroke-linecap:butt;stroke-linejoin:miter;stroke-opacity:1"
     d="m 1.0583333,2.5135706 h 1.5875"
     id="path2216-3" />
  <path
     style="fill:none;stroke:CurrentColor;stroke-width:0.264583px;stroke-linecap:round;stroke-linejoin:miter;stroke-opacity:1"
     d="m 0.66145833,1.4552372 v 0"
     id="path2280" />
  <path
     style="fill:none;stroke:CurrentColor;stroke-width:0.264583px;stroke-linecap:round;stroke-linejoin:miter;stroke-opacity:1"
     d="m 0.66145833,1.9844039 v 0"
     id="path2282" />
  <path
     style="fill:none;stroke:CurrentColor;stroke-width:0.264583px;stroke-linecap:round;stroke-linejoin:miter;stroke-opacity:1"
     d="m 0.66145833,2.5135706 v 0"
     id="path2284" />
  <path
     style="fill:;fill-opacity:1;stroke:CurrentColor;stroke-width:0.264583px;stroke-linecap:butt;stroke-linejoin:round;stroke-opacity:1"
     d="m 3.0425258,0.7937472 c 2.6e-6,0.036081 5.3e-6,0.1322917 -0.145497,0.1322943 l -2.61903268,5.82e-5 C 0.13249407,0.9261024 0.13249116,0.8298867 0.1324901,0.7938107 l -1.666e-5,-0.5291666 c -1.33e-6,-0.036081 -4.24e-6,-0.1322917 0.14549781,-0.1322944 l 2.61903365,-5.82e-5 c 0.1455024,-2.6e-6 0.145505,0.096205 0.145505,0.1322891 z"
     id="path1293" />
</svg>
