<?xml version="1.0" encoding="UTF-8" standalone="no"?>
<svg
   xmlns:dc="http://purl.org/dc/elements/1.1/"
   xmlns:cc="http://creativecommons.org/ns#"
   xmlns:rdf="http://www.w3.org/1999/02/22-rdf-syntax-ns#"
   xmlns:svg="http://www.w3.org/2000/svg"
   xmlns="http://www.w3.org/2000/svg"
   width="12"
   height="12"
   version="1.1"
   viewBox="0 0 3.175 3.175"
   id="svg12">
  <metadata
     id="metadata18">
    <rdf:RDF>
      <cc:Work
         rdf:about="">
        <dc:format>image/svg+xml</dc:format>
        <dc:type
           rdf:resource="http://purl.org/dc/dcmitype/StillImage" />
        <dc:title></dc:title>
      </cc:Work>
    </rdf:RDF>
  </metadata>
  <defs
     id="defs16" />
  <path
     style="fill:none;fill-opacity:1;stroke:CurrentColor;stroke-width:0.264583px;stroke-linecap:butt;stroke-linejoin:round;stroke-opacity:1"
     d="m 0.13229167,1.8539671 v 0.396875 c 0,0.1322916 0.13229166,0.2645833 0.26458333,0.2645833 h 2.38125 c 0.1322917,0 0.2645833,-0.1322917 0.2645833,-0.2645833 v -0.396875"
     id="path1027-1" />
  <path
     style="fill:;fill-opacity:1;stroke:CurrentColor;stroke-width:0.264583px;stroke-linecap:butt;stroke-linejoin:round;stroke-opacity:1"
     d="m 2.778125,0.13417598 c 0.1322917,0 0.2645833,0.1322916 0.2645833,0.2645833 V 1.9862587 c 0,0.1322917 -0.1322916,0.2645834 -0.2645833,0.2645834 h -2.38125 c -0.13229167,0 -0.26458333,-0.1322917 -0.26458333,-0.2645834 V 0.39875928 c 0,-0.1322917 0.13229166,-0.2645833 0.26458333,-0.2645833 z"
     id="path4563-2-3-0" />
  <path
     style="fill:none;stroke:CurrentColor;stroke-width:0.264583px;stroke-linecap:butt;stroke-linejoin:miter;stroke-opacity:1"
     d="m 0.79375,3.0445921 h 1.5875"
     id="path1443-1" />
  <path
     style="fill:none;stroke:;stroke-width:0.264583px;stroke-linecap:round;stroke-linejoin:round;stroke-opacity:1"
     d="M 0.66145833,1.1925087 V 0.79563378 c 0,-0.1322917 0,-0.1322917 0.13229167,-0.1322917 h 0.396875"
     id="path1528" />
  <path
     style="fill:none;stroke:CurrentColor;stroke-width:0.264583px;stroke-linecap:butt;stroke-linejoin:miter;stroke-opacity:1"
     d="M 1.0583333,2.7800087 H 2.1166667"
     id="path1443-1-0" />
</svg>
